HIERARCHY
ROOT Hips
{
	OFFSET 0.000000 0.000000 0.000000 
	CHANNELS 6 Xposition Yposition Zposition Yrotation Zrotation Xrotation 
	JOINT Lumbar
	{
		OFFSET 0.000000 0.000000 0.000000 
		CHANNELS 3 Zrotation Xrotation Yrotation
		JOINT Neck
		{
			OFFSET 0.000000 0.445665 0.000000 
			CHANNELS 3 Zrotation Xrotation Yrotation
			End Site
			{
				OFFSET 0.000000 0.227535 0.000000 
			}
		}
		JOINT RightShoulder
		{
			OFFSET 0.019635 0.377685 0.194865 
			CHANNELS 3 Zrotation Xrotation Yrotation
			JOINT RightElbow
			{
				OFFSET 0.000000 -0.243375 0.000000 
				CHANNELS 2 Zrotation Yrotation
				JOINT RightWrist
				{
					OFFSET 0.000000 -0.264825 0.000000 
					CHANNELS 2 Zrotation Xrotation
					End Site
					{
						OFFSET 0.006600 -0.176220 0.000990 
					}
				}
			}
		}
		JOINT LeftShoulder
		{
			OFFSET 0.019635 0.377685 -0.194865 
			CHANNELS 3 Zrotation Xrotation Yrotation
			JOINT LeftElbow
			{
				OFFSET 0.000000 -0.243375 0.000000 
				CHANNELS 2 Zrotation Yrotation
				JOINT LeftWrist
				{
					OFFSET 0.000000 -0.264825 0.000000 
					CHANNELS 2 Zrotation Xrotation
					End Site
					{
						OFFSET 0.006600 -0.176220 -0.000990 
					}
				}
			}
		}
	}
	JOINT RightHip
	{
		OFFSET 0.052140 -0.069960 0.075570 
		CHANNELS 3 Zrotation Xrotation Yrotation
		JOINT RightKnee
		{
			OFFSET 0.000000 -0.402270 0.000000 
			CHANNELS 1 Zrotation
			JOINT RightAnkle
			{
				OFFSET 0.000000 -0.404085 0.000000 
				CHANNELS 3 Zrotation Xrotation Yrotation
				End Site
				{
					OFFSET 0.204105 -0.089430 0.008415 
				}
			}
		}
	}
	JOINT LeftHip
	{
		OFFSET 0.052140 -0.069960 -0.075570 
		CHANNELS 3 Zrotation Xrotation Yrotation
		JOINT LeftKnee
		{
			OFFSET 0.000000 -0.402270 0.000000 
			CHANNELS 1 Zrotation
			JOINT LeftAnkle
			{
				OFFSET 0.000000 -0.404085 0.000000 
				CHANNELS 3 Zrotation Xrotation Yrotation
				End Site
				{
					OFFSET 0.204105 -0.089430 -0.008415 
				}
			}
		}
	}
}
MOTION
Frames: 24
Frame Time: 0.02
1.51627 0.29586 -1.09066 844.67813 -49.00568 -14.74859 52.43479 -0.173 6.80906 -2.69644 -3.56117 -2.11994 -44.23038 7.31514 39.24481 36.91198 94.44271 -22.09481 -8.23405 -41.08992 0.15622 -37.29834 42.70632 -105.0844 -18.4313 8.59432 33.08909 3.62926 -11.68985 -36.52414 -8.84188 -1.38735 -3.01525 64.85286 11.27495 14.46863 -18.58471 -11.08184 2.07741 3.45596
1.4972 0.29413 -1.09938 844.93618 -48.60445 -14.34905 52.50318 -0.35055 5.70232 -2.8222 -3.70371 -2.11994 -44.29375 6.70699 39.65768 37.07067 95.72244 -22.89309 -7.97501 -41.32093 -0.00696 -38.10461 42.78518 -104.91149 -19.145 8.73525 34.37808 3.04356 -10.5202 -40.10152 -9.76643 -1.45858 -3.0924 63.89272 10.91169 13.76065 -20.42709 -10.6097 2.7777 3.78704
1.47891 0.29235 -1.10711 845.23101 -48.08829 -13.99145 52.3254 -0.4755 4.65772 -2.84861 -3.83241 -2.11994 -44.38223 6.01891 40.25274 37.20044 97.60363 -23.93307 -7.53365 -41.49699 -0.16642 -39.12146 42.76537 -104.22731 -19.94999 8.81869 36.07672 2.54028 -9.51633 -44.1811 -10.79222 -1.53656 -3.17785 62.58591 10.49279 14.64129 -21.76092 -10.24853 2.39419 3.57733
1.46034 0.29059 -1.11527 845.51199 -47.62846 -13.62761 52.25801 -0.61867 3.57512 -2.92667 -3.96731 -2.11994 -44.45653 5.37486 40.74444 37.34195 99.14849 -24.81233 -7.1918 -41.69677 -0.33733 -40.0136 42.7768 -103.79405 -20.67744 8.91869 37.59714 2.01453 -8.47284 -47.98398 -11.717 -1.61306 -3.25777 61.44577 10.10404 14.72892 -23.3237 -9.83824 2.53411 3.62893
1.44143 0.28887 -1.1235 845.78755 -47.14993 -13.20418 52.19869 -0.78706 2.52621 -2.97943 -4.10352 -2.11994 -44.5362 4.69515 41.33021 37.48318 100.93184 -25.87779 -6.78063 -41.90312 -0.46964 -41.02596 42.84473 -103.26803 -21.54241 9.05324 39.09262 1.42137 -7.27419 -52.01683 -12.87495 -1.68358 -3.3455 60.27613 9.69007 15.06154 -24.92779 -9.4183 2.57516 3.63066
1.42343 0.28704 -1.13135 846.08396 -46.68549 -12.9165 52.06416 -0.89081 1.42489 -3.06038 -4.23278 -2.11994 -44.61357 4.07399 41.75832 37.61938 102.37407 -26.62567 -6.46975 -42.08253 -0.68016 -41.83787 42.77315 -102.8193 -22.15029 9.10531 40.73383 0.99039 -6.44125 -55.66613 -13.57357 -1.76751 -3.41872 59.08372 9.31817 15.28536 -26.31157 -9.04667 2.55123 3.6011
1.40769 0.28493 -1.13835 846.38746 -46.26457 -12.99865 51.77226 -0.81814 0.16391 -3.24427 -4.3533 -2.11994 -44.67178 3.60864 41.73675 37.76142 102.70073 -26.42248 -6.48526 -42.19796 -1.11103 -42.05541 42.32616 -102.71386 -22.01516 8.93221 42.67781 0.98029 -6.55864 -58.3024 -12.94665 -1.89191 -3.45086 57.8936 9.06447 14.78272 -27.2247 -8.77835 2.62984 3.62565
1.39286 0.28272 -1.145 846.7171 -45.86603 -13.21572 51.41436 -0.68379 -1.1499 -3.45928 -4.46596 -2.11994 -44.7284 3.20964 41.54613 37.89725 102.67266 -25.90354 -6.60672 -42.28884 -1.61948 -42.06187 41.74565 -102.70818 -21.63182 8.6807 44.75171 1.13266 -7.04154 -60.49942 -11.86005 -2.0288 -3.46799 56.69458 8.8578 14.13023 -27.92669 -8.55602 2.673 3.6337
1.37767 0.28056 -1.15181 847.06022 -45.47261 -13.3686 51.09319 -0.58464 -2.43995 -3.65955 -4.5775 -2.11994 -44.79157 2.79733 41.40955 38.02975 102.82683 -25.53565 -6.67675 -42.39232 -2.09018 -42.15921 41.23446 -102.65174 -21.35838 8.47362 46.76619 1.21516 -7.37082 -62.78932 -11.00382 -2.15636 -3.49113 55.51111 8.63761 13.57802 -28.71229 -8.315 2.7172 3.64185
1.36227 0.27836 -1.1586 847.29698 -45.01081 -13.53548 50.73622 -0.45406 -3.73121 -3.85992 -4.70825 -2.11994 -44.83292 2.31196 41.36644 38.19049 102.90931 -25.12075 -6.75542 -42.48648 -2.57253 -42.28754 40.67977 -102.58711 -21.05954 8.22827 48.80203 1.28236 -7.65609 -65.5601 -10.05812 -2.29876 -3.51752 54.26752 8.38188 12.94382 -29.53311 -8.06808 2.78804 3.66276
1.34752 0.27623 -1.16535 847.76192 -44.69801 -13.70408 50.43985 -0.37418 -5.02788 -4.06749 -4.79745 -2.11994 -44.91653 1.9945 41.09761 38.28704 103.05343 -24.75464 -6.84222 -42.59661 -3.04757 -42.29549 40.18974 -102.58624 -20.80445 8.04359 50.8122 1.42067 -8.11397 -67.20264 -9.19138 -2.41416 -3.53408 53.15105 8.21257 12.42506 -30.2366 -7.84341 2.8086 3.66001
1.33431 0.27434 -1.17214 848.84247 -44.7947 -13.84921 50.34151 -0.45621 -6.37164 -4.29849 -4.77258 -2.11994 -45.13923 2.13442 40.14458 38.24643 103.41337 -24.34701 -6.93896 -42.74153 -3.49522 -42.04982 39.87238 -102.59283 -20.27854 8.05604 52.77416 1.70078 -8.97886 -65.96778 -8.63034 -2.45208 -3.52612 52.3941 8.2664 12.24952 -30.67161 -7.66456 2.70615 3.59925
1.3217 0.27252 -1.17889 850.15329 -45.0411 -13.98994 50.30551 -0.59039 -7.71005 -4.53398 -4.70653 -2.11994 -45.4006 2.43971 38.9866 38.1353 103.85062 -24.04124 -7.03891 -42.9057 -3.92994 -41.6862 39.63183 -102.6842 -19.8776 8.13058 54.69333 2.04931 -9.99231 -63.5858 -8.1705 -2.46853 -3.51196 51.76658 8.40634 12.18955 -30.99756 -7.50682 2.55844 3.51736
1.30882 0.27063 -1.18565 851.36349 -45.21642 -14.12984 50.23193 -0.69642 -9.02271 -4.76069 -4.66015 -2.11994 -45.6294 2.66301 37.99087 38.03019 104.2787 -23.85946 -7.12921 -43.07241 -4.36377 -41.35514 39.38263 -102.84097 -19.73057 8.17023 56.59453 2.37571 -10.93411 -61.6407 -7.67778 -2.48684 -3.49745 51.07653 8.51014 12.07704 -31.37339 -7.34171 2.43198 3.44561
1.29599 0.26888 -1.19246 852.55667 -45.40273 -14.28802 50.19258 -0.81892 -10.45963 -5.01722 -4.60921 -2.11994 -45.9203 2.91691 36.70495 38.03101 104.59217 -22.96571 -7.25661 -43.1939 -4.83178 -41.09734 39.02019 -102.58474 -18.31123 8.23546 58.65934 2.66959 -11.93914 -60.03668 -7.10644 -2.51357 -3.48341 50.39891 8.60406 11.96122 -31.74022 -7.16875 2.30031 3.37044
1.28317 0.26687 -1.19914 853.84084 -45.60462 -14.40332 50.10057 -0.92046 -11.63144 -5.21191 -4.55837 -2.11994 -46.09251 3.14617 35.96773 37.79918 105.15846 -23.56082 -7.30748 -43.41029 -5.22089 -40.67214 38.91066 -103.17924 -19.51453 8.26295 60.37044 3.04584 -12.80168 -57.45596 -6.73802 -2.54929 -3.48262 49.72971 8.73695 11.88046 -32.10268 -7.01671 2.16987 3.29792
1.27025 0.26414 -1.20552 855.3098 -45.78521 -14.41731 49.82317 -0.95053 -12.10944 -5.23783 -4.51536 -2.11994 -45.91457 3.26015 36.87815 36.90243 106.48087 -28.43342 -7.1342 -43.92086 -5.42668 -39.72175 39.50736 -106.34907 -28.45275 8.17349 61.12306 3.62631 -13.59856 -52.46204 -6.82582 -2.33286 -3.38225 49.02277 8.96896 11.87525 -32.48139 -6.91561 2.05112 3.23647
1.25731 0.26114 -1.21176 856.8642 -45.98108 -14.38451 49.49545 -0.95811 -12.31383 -5.20053 -4.47427 -2.11994 -45.61799 3.34397 38.33486 35.78165 108.04266 -34.76469 -6.88539 -44.51995 -5.54786 -38.62332 40.35185 -110.32746 -39.93197 8.04396 61.51956 4.28685 -14.18607 -46.53162 -7.12917 -2.17177 -3.31769 48.32494 9.23488 11.90041 -32.86014 -6.835 1.93592 3.17879
1.24437 0.25826 -1.21805 858.38591 -46.1884 -14.36206 49.20755 -0.97695 -12.61878 -5.19012 -4.43412 -2.11994 -45.38458 3.44645 39.48634 34.78923 109.44581 -40.30696 -6.67866 -45.05394 -5.68602 -37.65628 41.06585 -113.77092 -49.9027 7.93141 62.07264 4.91527 -14.61732 -41.02334 -7.39107 -2.17937 -3.33157 47.64281 9.47648 11.9079 -33.23903 -6.74573 1.82136 3.12052
1.23151 0.25544 -1.22439 859.88951 -46.32452 -14.38606 48.85084 -0.99348 -13.02329 -5.18805 -4.38529 -2.11994 -45.11461 3.53622 40.86468 33.68128 111.06081 -46.39333 -6.43987 -45.69185 -5.91194 -36.42188 41.85707 -117.91675 -61.36096 7.82566 62.64438 5.53172 -16.07838 -35.46767 -7.42703 -1.39701 -2.95979 46.88328 9.75772 11.93651 -33.61375 -6.65407 1.69604 3.05693
1.21844 0.2524 -1.23061 861.44841 -46.60907 -14.30168 48.62389 -1.00843 -13.15641 -5.15304 -4.35499 -2.11994 -44.89067 3.64013 41.91095 32.76288 112.29182 -51.68099 -6.24922 -46.13627 -5.93826 -35.70126 42.54641 -120.80021 -70.33529 7.69608 63.09589 6.18672 -15.38925 -29.83049 -7.97171 -2.23689 -3.38177 46.28313 9.96456 11.92582 -33.99803 -6.57251 1.59411 3.00537
1.20492 0.24889 -1.2365 863.13578 -47.31238 -13.93423 48.77467 -1.02752 -12.59945 -5.04657 -4.38011 -2.11994 -44.83436 3.81613 41.83951 32.41175 112.39087 -54.49928 -6.21533 -46.00475 -5.40697 -36.51954 42.88278 -119.91629 -71.71763 7.50503 63.27716 6.96644 -8.41068 -23.96955 -9.97164 -7.85696 -6.14295 46.14065 9.94741 11.80736 -34.41467 -6.50956 1.56011 2.98797
1.19116 0.24517 -1.24229 864.8754 -48.16137 -13.45865 49.05636 -1.04477 -11.78058 -4.90828 -4.42303 -2.11994 -44.82568 4.00227 41.42892 32.26069 112.09649 -56.44769 -6.23148 -45.67844 -4.68279 -37.8459 43.10886 -117.74974 -70.53142 7.2922 63.35312 7.77485 0.65158 -18.10652 -12.45732 -15.04891 -9.67279 46.15413 9.85628 11.64606 -34.84039 -6.45703 1.5489 2.98228
1.17741 0.24152 -1.24814 866.59203 -48.9347 -13.02917 49.27284 -1.0609 -11.08625 -4.78198 -4.45507 -2.11994 -44.78805 4.16548 41.21828 32.02656 111.99155 -58.73014 -6.22114 -45.45513 -4.06485 -38.88399 43.3934 -116.22423 -70.59512 7.0925 63.49607 8.54477 8.49427 -12.40069 -14.65122 -21.31559 -12.74813 46.08232 9.8046 11.49862 -35.25859 -6.40205 1.52478 2.97012
